<svg width="10" height="11" viewBox="0 0 10 11" fill="none" xmlns="http://www.w3.org/2000/svg">
<path d="M5 10.3916C7.76142 10.3916 10 8.06536 10 5.1958C10 2.32624 7.76142 0 5 0C2.23858 0 0 2.32624 0 5.1958C0 8.06536 2.23858 10.3916 5 10.3916Z" fill="#F0F0F0"/>
<path d="M3.91408 4.51809H9.95862C9.63903 1.96876 7.54134 0 5.001 0C4.62767 0 4.26406 0.0428857 3.91406 0.123502V4.51809H3.91408Z" fill="#D80027"/>
<path d="M2.60938 4.51852V0.632202C1.23644 1.41064 0.253577 2.83849 0.0429688 4.51854H2.60938V4.51852Z" fill="#D80027"/>
<path d="M2.60936 5.87341H0.0429688C0.253577 7.55346 1.23644 8.98131 2.60938 9.75973L2.60936 5.87341Z" fill="#D80027"/>
<path d="M3.91406 5.87343V10.268C4.26406 10.3486 4.62767 10.3915 5.001 10.3915C7.54134 10.3915 9.63903 8.42274 9.95862 5.87341H3.91406V5.87343Z" fill="#D80027"/>
</svg>
