<svg width="11" height="11" viewBox="0 0 11 11" fill="none" xmlns="http://www.w3.org/2000/svg">
<path d="M7.20898 0.666992H3.45898C1.73336 0.666992 0.333984 2.06637 0.333984 3.79199V7.54199C0.333984 9.26762 1.73336 10.667 3.45898 10.667H7.20898C8.93461 10.667 10.334 9.26762 10.334 7.54199V3.79199C10.334 2.06637 8.93461 0.666992 7.20898 0.666992ZM9.39648 7.54199C9.39648 8.74824 8.41523 9.72949 7.20898 9.72949H3.45898C2.25273 9.72949 1.27148 8.74824 1.27148 7.54199V3.79199C1.27148 2.58574 2.25273 1.60449 3.45898 1.60449H7.20898C8.41523 1.60449 9.39648 2.58574 9.39648 3.79199V7.54199Z" fill="#043ED6"/>
<path d="M5.33398 3.16699C3.95336 3.16699 2.83398 4.28637 2.83398 5.66699C2.83398 7.04762 3.95336 8.16699 5.33398 8.16699C6.71461 8.16699 7.83398 7.04762 7.83398 5.66699C7.83398 4.28637 6.71461 3.16699 5.33398 3.16699ZM5.33398 7.22949C4.47273 7.22949 3.77148 6.52824 3.77148 5.66699C3.77148 4.80512 4.47273 4.10449 5.33398 4.10449C6.19523 4.10449 6.89648 4.80512 6.89648 5.66699C6.89648 6.52824 6.19523 7.22949 5.33398 7.22949Z" fill="#043ED6"/>
<path d="M8.02063 3.31273C8.20461 3.31273 8.35375 3.16359 8.35375 2.97961C8.35375 2.79563 8.20461 2.64648 8.02063 2.64648C7.83665 2.64648 7.6875 2.79563 7.6875 2.97961C7.6875 3.16359 7.83665 3.31273 8.02063 3.31273Z" fill="#043ED6"/>
</svg>
