<svg width="32" height="32" viewBox="0 0 32 32" fill="none" xmlns="http://www.w3.org/2000/svg">
<path fill-rule="evenodd" clip-rule="evenodd" d="M16 32C24.8366 32 32 24.8366 32 16C32 7.16344 24.8366 0 16 0C7.16344 0 0 7.16344 0 16C0 24.8366 7.16344 32 16 32Z" fill="white"/>
<path fill-rule="evenodd" clip-rule="evenodd" d="M16 24C20.4183 24 24 20.4183 24 16C24 11.5817 20.4183 8 16 8C11.5817 8 8 11.5817 8 16C8 20.4183 11.5817 24 16 24Z" fill="#043ED6"/>
<path d="M24.5576 6H7.44241C6.64575 6 6 6.65739 6 7.4684V24.8919C6 25.703 6.64575 26.3604 7.44241 26.3604H24.5576C25.3542 26.3604 26 25.703 26 24.8919V7.4684C26 6.65739 25.3542 6 24.5576 6V6ZM13.0941 21.3896H10.6587V13.9304H13.0941V21.3896ZM11.8765 12.9119H11.8606C11.0433 12.9119 10.5148 12.3392 10.5148 11.6234C10.5148 10.8914 11.0595 10.3345 11.8926 10.3345C12.7258 10.3345 13.2385 10.8914 13.2543 11.6234C13.2543 12.3392 12.7258 12.9119 11.8765 12.9119ZM21.8759 21.3896H19.4407V17.3991C19.4407 16.3962 19.0881 15.7123 18.2069 15.7123C17.5341 15.7123 17.1334 16.1737 16.9573 16.619C16.8929 16.7784 16.8772 17.0011 16.8772 17.224V21.3896H14.4419C14.4419 21.3896 14.4738 14.6302 14.4419 13.9304H16.8772V14.9866C17.2009 14.4783 17.7799 13.7554 19.0721 13.7554C20.6744 13.7554 21.8759 14.8214 21.8759 17.1125V21.3896Z" fill="white"/>
</svg>
