<svg width="11" height="9" viewBox="0 0 11 9" fill="none" xmlns="http://www.w3.org/2000/svg">
<path d="M10.666 1.62887C10.2941 1.79199 9.89789 1.90012 9.48477 1.95262C9.90977 1.69887 10.2341 1.30012 10.3866 0.819492C9.99039 1.05574 9.55289 1.22262 9.08664 1.31574C8.71039 0.915117 8.17414 0.666992 7.58914 0.666992C6.45414 0.666992 5.54039 1.58824 5.54039 2.71762C5.54039 2.88012 5.55414 3.03637 5.58789 3.18512C3.88352 3.10199 2.37539 2.28512 1.36227 1.04074C1.18539 1.34762 1.08164 1.69887 1.08164 2.07699C1.08164 2.78699 1.44727 3.41637 1.99227 3.78074C1.66289 3.77449 1.33977 3.67887 1.06602 3.52824C1.06602 3.53449 1.06602 3.54262 1.06602 3.55074C1.06602 4.54699 1.77664 5.37449 2.70852 5.56512C2.54164 5.61074 2.35977 5.63262 2.17102 5.63262C2.03977 5.63262 1.90727 5.62512 1.78289 5.59762C2.04852 6.40949 2.80227 7.00637 3.69852 7.02574C3.00102 7.57137 2.11539 7.90012 1.15664 7.90012C0.988516 7.90012 0.827266 7.89262 0.666016 7.87199C1.57414 8.45762 2.65039 8.79199 3.81102 8.79199C7.58352 8.79199 9.64602 5.66699 9.64602 2.95824C9.64602 2.86762 9.64289 2.78012 9.63852 2.69324C10.0454 2.40449 10.3873 2.04387 10.666 1.62887Z" fill="#043ED6"/>
</svg>
