<svg width="12" height="12" viewBox="0 0 12 12" fill="none" xmlns="http://www.w3.org/2000/svg">
<path d="M4.97472 9.14635L3.5607 10.5604C2.97448 11.1466 2.02514 11.1466 1.43941 10.5605C0.853563 9.97463 0.853563 9.0252 1.43929 8.43947L4.26781 5.61095C4.85354 5.02519 5.80298 5.02519 6.38871 5.61095C6.58397 5.80621 6.90056 5.80621 7.09582 5.61095C7.29108 5.41569 7.29108 5.09909 7.09582 4.90383C6.11955 3.92756 4.53697 3.92756 3.5607 4.90383L0.732203 7.73233C-0.244068 8.7086 -0.244068 10.2912 0.732203 11.2674C1.70836 12.2442 3.29105 12.2442 4.26784 11.2674L5.68185 9.85344C5.87711 9.65818 5.87711 9.34158 5.68185 9.14632C5.48659 8.95106 5.16997 8.95109 4.97472 9.14635Z" fill="white"/>
<path d="M11.2672 0.732203C10.2909 -0.244068 8.70782 -0.244068 7.73155 0.732203L6.03504 2.42871C5.83979 2.62397 5.83979 2.94057 6.03504 3.13582C6.2303 3.33108 6.5469 3.33108 6.74216 3.13582L8.43867 1.43932C9.02439 0.853563 9.97432 0.853563 10.5601 1.43932C11.1458 2.02504 11.1458 2.97448 10.5601 3.56021L7.44906 6.67125C6.86331 7.257 5.9139 7.257 5.32817 6.67125C5.13291 6.47599 4.81631 6.47599 4.62105 6.67125C4.42579 6.86651 4.42579 7.1831 4.62105 7.37836C5.59732 8.35463 7.1799 8.35463 8.15617 7.37836L11.2672 4.26734C12.2435 3.29107 12.2435 1.70847 11.2672 0.732203Z" fill="white"/>
</svg>
