<svg width="173" height="40" viewBox="0 0 173 40" fill="none" xmlns="http://www.w3.org/2000/svg">
<path d="M91.0019 10.6667V14.3489H86.3469V28.4303H82.4247V14.3345H77.7266V10.6667H91.0019Z" fill="#131E35"/>
<path d="M94.6805 28.8042C93.0714 28.8042 91.7496 28.2576 90.7008 27.1645C89.652 26.0714 89.1348 24.5324 89.1348 22.5618C89.1348 20.5769 89.652 19.0523 90.7008 17.9592C91.7496 16.866 93.0714 16.3195 94.6805 16.3195C96.419 16.3195 97.6976 16.9811 98.5022 18.3044H98.5597V16.6934H102.381V28.4159H98.5597V26.8193H98.5022C97.6976 28.1426 96.419 28.8042 94.6805 28.8042ZM95.7437 25.2947C96.5339 25.2947 97.1948 25.0502 97.6976 24.5467C98.2005 24.0433 98.4591 23.3817 98.4591 22.5618C98.4591 21.7276 98.2005 21.066 97.6976 20.5769C97.1948 20.0879 96.5339 19.829 95.7437 19.829C94.9679 19.829 94.3213 20.0735 93.8185 20.5769C93.3156 21.0803 93.057 21.742 93.057 22.5618C93.057 23.3961 93.3156 24.0577 93.8185 24.5467C94.3213 25.0502 94.9679 25.2947 95.7437 25.2947Z" fill="#131E35"/>
<path d="M110.483 28.8042C108.587 28.8042 107.035 28.2289 105.814 27.0782C104.592 25.9275 103.975 24.4173 103.975 22.5618C103.975 20.7064 104.592 19.1961 105.814 18.0455C107.035 16.8948 108.601 16.3195 110.483 16.3195C111.992 16.3195 113.4 16.6934 114.707 17.4557L113.141 20.5194C112.394 20.0447 111.575 19.8146 110.655 19.8146C109.865 19.8146 109.19 20.0591 108.63 20.5482C108.069 21.0372 107.796 21.7132 107.796 22.5475C107.796 23.3961 108.069 24.0577 108.63 24.5467C109.19 25.0358 109.865 25.2803 110.655 25.2803C111.561 25.2803 112.394 25.0502 113.141 24.5755L114.707 27.6392C113.4 28.4159 111.992 28.8042 110.483 28.8042Z" fill="#131E35"/>
<path d="M119.894 10.6667V18.2468H119.951C120.799 16.9667 122.049 16.3194 123.701 16.3194C125.052 16.3194 126.129 16.7222 126.92 17.542C127.71 18.3475 128.112 19.5557 128.112 21.1667V28.4159H124.276V22.2311C124.276 20.5338 123.572 19.6996 122.15 19.6996C120.641 19.6996 119.894 20.6489 119.894 22.5475V28.4303H116.072V10.6667H119.894Z" fill="#131E35"/>
<path d="M130.324 28.416V16.6935H134.146V28.416H130.324Z" fill="#131E35"/>
<path d="M144.103 16.3195C145.453 16.3195 146.531 16.7222 147.321 17.5421C148.111 18.3475 148.514 19.5557 148.514 21.1667V28.416H144.706V22.2311C144.706 20.5338 143.988 19.6996 142.551 19.6996C141.043 19.6996 140.296 20.6489 140.296 22.5475V28.4304H136.488V16.6934H140.238V18.4626H140.296C141.129 17.0386 142.408 16.3195 144.103 16.3195Z" fill="#131E35"/>
<path d="M156.302 16.3481C158.112 16.3481 159.534 16.8803 160.554 17.9303C161.589 18.9803 162.106 20.5481 162.106 22.6049V23.4679H153.716C153.945 24.8919 154.951 25.5967 156.704 25.5967C157.882 25.5967 159.017 25.2371 160.095 24.5323L161.488 27.4234C160.008 28.3295 158.385 28.7898 156.646 28.7898C154.693 28.7898 153.112 28.2289 151.905 27.0926C150.713 25.9563 150.109 24.4604 150.109 22.6049C150.109 20.6632 150.684 19.1241 151.819 18.0166C152.954 16.9091 154.448 16.3481 156.302 16.3481ZM156.172 19.0522C154.721 19.0522 153.902 19.7714 153.744 21.2097H158.399C158.385 20.5337 158.169 20.0015 157.753 19.6276C157.336 19.2536 156.805 19.0522 156.172 19.0522Z" fill="#131E35"/>
<path d="M167.852 28.8042C165.941 28.8042 164.174 28.4015 162.551 27.5816L164.002 24.4317C165.539 25.3234 166.918 25.7693 168.154 25.7693C168.858 25.7693 169.217 25.5967 169.217 25.2371C169.217 25.1508 169.203 25.0789 169.174 25.007C169.145 24.9351 169.102 24.8776 169.016 24.8488C168.944 24.8056 168.887 24.7769 168.844 24.7481C168.801 24.7193 168.729 24.6906 168.614 24.6474C168.499 24.6043 168.427 24.5755 168.398 24.5611L166.344 23.7557C164.433 23.0221 163.485 21.8139 163.485 20.131C163.485 18.9085 163.901 17.9735 164.749 17.3119C165.597 16.6503 166.847 16.3195 168.499 16.3195C169.849 16.3195 171.257 16.5496 172.723 17.0242L171.66 20.1167C170.252 19.5413 169.102 19.2537 168.183 19.2537C167.551 19.2537 167.249 19.4263 167.249 19.7571C167.249 19.9297 167.321 20.0591 167.45 20.1454C167.579 20.2317 167.809 20.3468 168.14 20.4906L170.165 21.2529C171.114 21.6125 171.818 22.0584 172.292 22.5906C172.766 23.1372 172.996 23.8707 172.996 24.82C172.996 26.1721 172.536 27.1645 171.631 27.8118C170.74 28.4734 169.476 28.8042 167.852 28.8042Z" fill="#131E35"/>
<path d="M131.718 10.7096H134.29V13.2701H134.275L132.278 15.284V12.7091H129.721L131.718 10.7096Z" fill="#043ED6"/>
<path d="M15.5023 40H31.7373L55.5726 16.1525V0H8.28991L0 8.29917V24.4804L12.0829 12.3697H27.6139V27.918L15.5023 40Z" fill="#6CC1FF"/>
<path d="M12.1116 12.3983H27.6283V27.9179H27.5708L15.5023 39.9999V24.4803H0L12.1116 12.3983Z" fill="url(#paint0_linear)"/>
<path d="M51.4052 4.1134V12.3695H35.8742V27.9179H27.6274V12.3695H12.082V4.1134H51.4052Z" fill="white"/>
<defs>
<linearGradient id="paint0_linear" x1="13.8141" y1="12.3983" x2="13.8141" y2="39.9999" gradientUnits="userSpaceOnUse">
<stop stop-color="#043ED6"/>
<stop offset="1" stop-color="#002B9D"/>
</linearGradient>
</defs>
</svg>
