<svg width="217" height="50" viewBox="0 0 217 50" fill="none" xmlns="http://www.w3.org/2000/svg">
<path d="M113.75 8.8457V13.4482H107.932V31.0491H103.029V13.4302H97.1562V8.8457H113.75Z" fill="white"/>
<path d="M118.348 31.518C116.337 31.518 114.685 30.8347 113.374 29.4683C112.063 28.1018 111.416 26.178 111.416 23.7148C111.416 21.2336 112.063 19.3278 113.374 17.9613C114.685 16.5948 116.337 15.9116 118.348 15.9116C120.521 15.9116 122.119 16.7387 123.125 18.3928H123.197V16.3791H127.974V31.0325H123.197V29.0368H123.125C122.119 30.6909 120.521 31.518 118.348 31.518ZM119.677 27.1309C120.665 27.1309 121.491 26.8253 122.119 26.196C122.748 25.5667 123.071 24.7396 123.071 23.7148C123.071 22.672 122.748 21.8449 122.119 21.2336C121.491 20.6223 120.665 20.2987 119.677 20.2987C118.707 20.2987 117.899 20.6043 117.271 21.2336C116.642 21.8629 116.319 22.69 116.319 23.7148C116.319 24.7576 116.642 25.5847 117.271 26.196C117.899 26.8253 118.707 27.1309 119.677 27.1309Z" fill="white"/>
<path d="M138.102 31.518C135.732 31.518 133.792 30.7988 132.266 29.3604C130.739 27.922 129.967 26.0342 129.967 23.7148C129.967 21.3954 130.739 19.5076 132.266 18.0692C133.792 16.6308 135.75 15.9116 138.102 15.9116C139.988 15.9116 141.748 16.3791 143.382 17.332L141.425 21.1617C140.491 20.5684 139.467 20.2807 138.318 20.2807C137.33 20.2807 136.486 20.5863 135.785 21.1976C135.085 21.8089 134.744 22.654 134.744 23.6968C134.744 24.7576 135.085 25.5847 135.785 26.196C136.486 26.8073 137.33 27.1129 138.318 27.1129C139.449 27.1129 140.491 26.8253 141.425 26.2319L143.382 30.0616C141.748 31.0325 139.988 31.518 138.102 31.518Z" fill="white"/>
<path d="M149.865 8.8457V18.3208H149.937C150.996 16.7206 152.559 15.9115 154.624 15.9115C156.312 15.9115 157.659 16.415 158.647 17.4398C159.635 18.4466 160.137 19.9569 160.137 21.9705V31.0321H155.342V23.301C155.342 21.1795 154.462 20.1367 152.684 20.1367C150.799 20.1367 149.865 21.3233 149.865 23.6965V31.05H145.088V8.8457H149.865Z" fill="white"/>
<path d="M162.904 31.0317V16.3804H167.681V31.0317H162.904Z" fill="white"/>
<path d="M180.126 15.9116C181.814 15.9116 183.161 16.415 184.148 17.4398C185.136 18.4466 185.639 19.9568 185.639 21.9705V31.0318H180.88V23.3009C180.88 21.1794 179.982 20.1366 178.186 20.1366C176.3 20.1366 175.367 21.3232 175.367 23.6964V31.0497H170.607V16.3791H175.295V18.5905H175.367C176.408 16.8106 178.006 15.9116 180.126 15.9116Z" fill="white"/>
<path d="M195.373 15.9478C197.636 15.9478 199.414 16.613 200.689 17.9256C201.982 19.2381 202.628 21.1979 202.628 23.7691V24.8479H192.14C192.428 26.6279 193.685 27.5089 195.876 27.5089C197.349 27.5089 198.767 27.0594 200.114 26.1784L201.856 29.7923C200.006 30.9251 197.977 31.5004 195.804 31.5004C193.362 31.5004 191.386 30.7992 189.878 29.3788C188.387 27.9584 187.633 26.0885 187.633 23.7691C187.633 21.3418 188.351 19.4179 189.77 18.0334C191.189 16.649 193.056 15.9478 195.373 15.9478ZM195.211 19.328C193.398 19.328 192.374 20.227 192.176 22.025H197.995C197.977 21.1799 197.708 20.5147 197.187 20.0472C196.666 19.5797 196.002 19.328 195.211 19.328Z" fill="white"/>
<path d="M209.812 31.518C207.424 31.518 205.215 31.0145 203.186 29.9897L204.999 26.0521C206.921 27.1669 208.645 27.7243 210.189 27.7243C211.069 27.7243 211.518 27.5085 211.518 27.059C211.518 26.9511 211.5 26.8612 211.465 26.7713C211.429 26.6814 211.375 26.6095 211.267 26.5736C211.177 26.5196 211.105 26.4837 211.052 26.4477C210.998 26.4117 210.908 26.3758 210.764 26.3218C210.621 26.2679 210.531 26.2319 210.495 26.214L207.927 25.2071C205.538 24.2901 204.353 22.7799 204.353 20.6762C204.353 19.148 204.874 17.9793 205.933 17.1522C206.993 16.3252 208.555 15.9116 210.621 15.9116C212.309 15.9116 214.069 16.1993 215.9 16.7926L214.571 20.6583C212.811 19.9391 211.375 19.5795 210.225 19.5795C209.435 19.5795 209.058 19.7952 209.058 20.2088C209.058 20.4245 209.148 20.5863 209.31 20.6942C209.471 20.8021 209.758 20.9459 210.172 21.1257L212.704 22.0786C213.889 22.5281 214.769 23.0855 215.362 23.7508C215.954 24.434 216.242 25.3509 216.242 26.5376C216.242 28.2277 215.667 29.4683 214.536 30.2774C213.422 31.1044 211.842 31.518 209.812 31.518Z" fill="white"/>
<path d="M19.3775 50H39.671L69.4646 20.1906V0H10.3622L0 10.374V30.6005L15.1034 15.4621H34.5168V34.8975L19.3775 50Z" fill="#6CC1FF"/>
<path d="M15.1393 15.4983H34.5348V34.8978H34.4629L19.3775 50.0002V30.6007H0L15.1393 15.4983Z" fill="url(#paint0_linear)"/>
<path d="M64.2567 5.14185V15.4618H44.8433V34.8972H34.5349V15.4618H15.1035V5.14185H64.2567Z" fill="white"/>
<path d="M164.647 8.89941H167.861V12.1001H167.843L165.347 14.6175V11.3988H162.15L164.647 8.89941Z" fill="white"/>
<defs>
<linearGradient id="paint0_linear" x1="17.2674" y1="15.4983" x2="17.2674" y2="50.0002" gradientUnits="userSpaceOnUse">
<stop stop-color="#043ED6"/>
<stop offset="1" stop-color="#002B9D"/>
</linearGradient>
</defs>
</svg>
